<mxfile host="www.draw.io" modified="2019-11-21T09:43:43.036Z" agent="Mozilla/5.0 (Windows NT 10.0; Win64; x64) AppleWebKit/537.36 (KHTML, like Gecko) Chrome/77.0.3865.120 Safari/537.36" etag="Ou9Qj-EKtJ7HCcZpmhcE" version="12.2.7" type="github" pages="1">
  <diagram id="6a731a19-8d31-9384-78a2-239565b7b9f0" name="Page-1">
    <mxGraphModel dx="1363" dy="748" grid="1" gridSize="10" guides="1" tooltips="1" connect="1" arrows="1" fold="1" page="1" pageScale="1" pageWidth="1169" pageHeight="827" background="#ffffff" math="0" shadow="0">
      <root>
        <mxCell id="0"/>
        <mxCell id="1" parent="0"/>
        <mxCell id="m7U9Kqt3d0JaiDTDVEtB-1625" style="rounded=1;orthogonalLoop=1;jettySize=auto;html=1;strokeColor=#FF6666;fontSize=18;fontColor=#FF6666;" edge="1" parent="1" target="m7U9Kqt3d0JaiDTDVEtB-1572">
          <mxGeometry relative="1" as="geometry">
            <mxPoint x="650" y="284" as="sourcePoint"/>
          </mxGeometry>
        </mxCell>
        <mxCell id="m7U9Kqt3d0JaiDTDVEtB-1626" value="setter notify" style="text;html=1;resizable=0;points=[];align=center;verticalAlign=middle;labelBackgroundColor=#ffffff;fontSize=18;fontColor=#FF6666;" vertex="1" connectable="0" parent="m7U9Kqt3d0JaiDTDVEtB-1625">
          <mxGeometry x="0.0892" y="7" relative="1" as="geometry">
            <mxPoint x="-13" y="6.5" as="offset"/>
          </mxGeometry>
        </mxCell>
        <mxCell id="m7U9Kqt3d0JaiDTDVEtB-1628" style="rounded=1;orthogonalLoop=1;jettySize=auto;html=1;entryX=0;entryY=0;entryDx=0;entryDy=0;strokeColor=#000000;fontSize=18;fontColor=#000000;" edge="1" parent="1" target="m7U9Kqt3d0JaiDTDVEtB-1572">
          <mxGeometry relative="1" as="geometry">
            <mxPoint x="650" y="220" as="sourcePoint"/>
            <Array as="points">
              <mxPoint x="790" y="223"/>
            </Array>
          </mxGeometry>
        </mxCell>
        <mxCell id="m7U9Kqt3d0JaiDTDVEtB-1629" value="getter depend" style="text;html=1;resizable=0;points=[];align=center;verticalAlign=middle;labelBackgroundColor=#ffffff;fontSize=18;fontColor=#000000;" vertex="1" connectable="0" parent="m7U9Kqt3d0JaiDTDVEtB-1628">
          <mxGeometry x="0.1508" y="-1" relative="1" as="geometry">
            <mxPoint x="-16" y="-1.5" as="offset"/>
          </mxGeometry>
        </mxCell>
        <mxCell id="m7U9Kqt3d0JaiDTDVEtB-1571" value="响应式对象" style="swimlane;glass=0;comic=0;strokeColor=#7EA6E0;fillColor=none;fontSize=18;fontColor=#7EA6E0;strokeWidth=4;startSize=29;rounded=1;shadow=0;arcSize=21;" vertex="1" parent="1">
          <mxGeometry x="490" y="117" width="160" height="290" as="geometry"/>
        </mxCell>
        <mxCell id="m7U9Kqt3d0JaiDTDVEtB-1614" style="edgeStyle=orthogonalEdgeStyle;curved=1;rounded=1;orthogonalLoop=1;jettySize=auto;html=1;entryX=0;entryY=0.5;entryDx=0;entryDy=0;strokeColor=#000000;fontSize=18;fontColor=#000000;" edge="1" parent="1" source="m7U9Kqt3d0JaiDTDVEtB-1543" target="m7U9Kqt3d0JaiDTDVEtB-1544">
          <mxGeometry relative="1" as="geometry"/>
        </mxCell>
        <mxCell id="m7U9Kqt3d0JaiDTDVEtB-1543" value="$mount" style="rounded=1;whiteSpace=wrap;html=1;fillColor=#EBEBEB;strokeColor=none;gradientColor=none;fontColor=#000000;fontSize=18;" vertex="1" parent="1">
          <mxGeometry x="150" y="720" width="120" height="50" as="geometry"/>
        </mxCell>
        <mxCell id="m7U9Kqt3d0JaiDTDVEtB-1550" style="edgeStyle=orthogonalEdgeStyle;rounded=1;orthogonalLoop=1;jettySize=auto;html=1;entryX=0;entryY=0.5;entryDx=0;entryDy=0;fontColor=#FFFFFF;" edge="1" parent="1" source="m7U9Kqt3d0JaiDTDVEtB-1544" target="m7U9Kqt3d0JaiDTDVEtB-1547">
          <mxGeometry relative="1" as="geometry">
            <Array as="points">
              <mxPoint x="390" y="700"/>
              <mxPoint x="210" y="700"/>
              <mxPoint x="210" y="222"/>
            </Array>
          </mxGeometry>
        </mxCell>
        <mxCell id="m7U9Kqt3d0JaiDTDVEtB-1615" style="edgeStyle=orthogonalEdgeStyle;curved=1;rounded=1;orthogonalLoop=1;jettySize=auto;html=1;strokeColor=#000000;fontSize=18;fontColor=#000000;" edge="1" parent="1" source="m7U9Kqt3d0JaiDTDVEtB-1544" target="m7U9Kqt3d0JaiDTDVEtB-1545">
          <mxGeometry relative="1" as="geometry"/>
        </mxCell>
        <mxCell id="m7U9Kqt3d0JaiDTDVEtB-1544" value="initRender" style="rounded=1;whiteSpace=wrap;html=1;fillColor=#EBEBEB;strokeColor=none;gradientColor=none;fontColor=#000000;fontSize=18;" vertex="1" parent="1">
          <mxGeometry x="330" y="720" width="120" height="50" as="geometry"/>
        </mxCell>
        <mxCell id="m7U9Kqt3d0JaiDTDVEtB-1598" style="edgeStyle=orthogonalEdgeStyle;rounded=1;orthogonalLoop=1;jettySize=auto;html=1;entryX=0.5;entryY=1;entryDx=0;entryDy=0;strokeColor=#000000;fontSize=18;fontColor=#000000;" edge="1" parent="1" source="m7U9Kqt3d0JaiDTDVEtB-1545" target="m7U9Kqt3d0JaiDTDVEtB-1596">
          <mxGeometry relative="1" as="geometry">
            <Array as="points">
              <mxPoint x="718" y="690"/>
              <mxPoint x="1070" y="690"/>
            </Array>
          </mxGeometry>
        </mxCell>
        <mxCell id="m7U9Kqt3d0JaiDTDVEtB-1616" style="edgeStyle=orthogonalEdgeStyle;curved=1;rounded=1;orthogonalLoop=1;jettySize=auto;html=1;entryX=0;entryY=0.5;entryDx=0;entryDy=0;strokeColor=#000000;fontSize=18;fontColor=#000000;" edge="1" parent="1" source="m7U9Kqt3d0JaiDTDVEtB-1545" target="m7U9Kqt3d0JaiDTDVEtB-1546">
          <mxGeometry relative="1" as="geometry"/>
        </mxCell>
        <mxCell id="m7U9Kqt3d0JaiDTDVEtB-1619" style="edgeStyle=orthogonalEdgeStyle;rounded=1;orthogonalLoop=1;jettySize=auto;html=1;entryX=0.5;entryY=1;entryDx=0;entryDy=0;strokeColor=#000000;fontSize=18;fontColor=#000000;exitX=0.5;exitY=0;exitDx=0;exitDy=0;" edge="1" parent="1" source="m7U9Kqt3d0JaiDTDVEtB-1545" target="m7U9Kqt3d0JaiDTDVEtB-1617">
          <mxGeometry relative="1" as="geometry">
            <Array as="points">
              <mxPoint x="718" y="690"/>
              <mxPoint x="460" y="690"/>
            </Array>
          </mxGeometry>
        </mxCell>
        <mxCell id="m7U9Kqt3d0JaiDTDVEtB-1630" style="edgeStyle=orthogonalEdgeStyle;curved=1;rounded=1;orthogonalLoop=1;jettySize=auto;html=1;entryX=0.5;entryY=1;entryDx=0;entryDy=0;strokeColor=#000000;fontSize=18;fontColor=#000000;" edge="1" parent="1" source="m7U9Kqt3d0JaiDTDVEtB-1545" target="m7U9Kqt3d0JaiDTDVEtB-1594">
          <mxGeometry relative="1" as="geometry"/>
        </mxCell>
        <mxCell id="m7U9Kqt3d0JaiDTDVEtB-1545" value="initState" style="rounded=1;whiteSpace=wrap;html=1;fillColor=#EBEBEB;strokeColor=none;gradientColor=none;fontColor=#000000;fontSize=18;" vertex="1" parent="1">
          <mxGeometry x="658" y="720" width="120" height="50" as="geometry"/>
        </mxCell>
        <mxCell id="m7U9Kqt3d0JaiDTDVEtB-1601" style="edgeStyle=orthogonalEdgeStyle;curved=1;rounded=1;orthogonalLoop=1;jettySize=auto;html=1;entryX=0.5;entryY=1;entryDx=0;entryDy=0;strokeColor=#000000;fontSize=18;fontColor=#000000;" edge="1" parent="1" source="m7U9Kqt3d0JaiDTDVEtB-1546" target="m7U9Kqt3d0JaiDTDVEtB-1554">
          <mxGeometry relative="1" as="geometry"/>
        </mxCell>
        <mxCell id="m7U9Kqt3d0JaiDTDVEtB-1546" value="new Watcher" style="rounded=1;whiteSpace=wrap;html=1;fillColor=#EBEBEB;strokeColor=none;gradientColor=none;fontColor=#000000;fontSize=18;" vertex="1" parent="1">
          <mxGeometry x="1162.5" y="720" width="120" height="50" as="geometry"/>
        </mxCell>
        <mxCell id="m7U9Kqt3d0JaiDTDVEtB-1566" style="edgeStyle=orthogonalEdgeStyle;rounded=0;orthogonalLoop=1;jettySize=auto;html=1;entryX=-0.017;entryY=0.64;entryDx=0;entryDy=0;entryPerimeter=0;fontSize=18;fontColor=#FFFFFF;" edge="1" parent="1" source="m7U9Kqt3d0JaiDTDVEtB-1547" target="m7U9Kqt3d0JaiDTDVEtB-1556">
          <mxGeometry relative="1" as="geometry"/>
        </mxCell>
        <mxCell id="m7U9Kqt3d0JaiDTDVEtB-1567" style="edgeStyle=orthogonalEdgeStyle;rounded=0;orthogonalLoop=1;jettySize=auto;html=1;entryX=0;entryY=0.75;entryDx=0;entryDy=0;fontSize=18;fontColor=#FFFFFF;" edge="1" parent="1" source="m7U9Kqt3d0JaiDTDVEtB-1547" target="m7U9Kqt3d0JaiDTDVEtB-1557">
          <mxGeometry relative="1" as="geometry"/>
        </mxCell>
        <mxCell id="m7U9Kqt3d0JaiDTDVEtB-1547" value="defineReactive" style="rounded=1;whiteSpace=wrap;html=1;fillColor=#fad7ac;strokeColor=none;fontSize=18;arcSize=50;fontColor=#FFFFFF;" vertex="1" parent="1">
          <mxGeometry x="300" y="197" width="150" height="50" as="geometry"/>
        </mxCell>
        <mxCell id="m7U9Kqt3d0JaiDTDVEtB-1564" style="edgeStyle=orthogonalEdgeStyle;rounded=0;orthogonalLoop=1;jettySize=auto;html=1;fontSize=18;fontColor=#FFFFFF;" edge="1" parent="1" source="m7U9Kqt3d0JaiDTDVEtB-1548" target="m7U9Kqt3d0JaiDTDVEtB-1562">
          <mxGeometry relative="1" as="geometry"/>
        </mxCell>
        <mxCell id="m7U9Kqt3d0JaiDTDVEtB-1565" style="edgeStyle=orthogonalEdgeStyle;rounded=0;orthogonalLoop=1;jettySize=auto;html=1;entryX=0;entryY=0.5;entryDx=0;entryDy=0;fontSize=18;fontColor=#FFFFFF;" edge="1" parent="1" source="m7U9Kqt3d0JaiDTDVEtB-1548" target="m7U9Kqt3d0JaiDTDVEtB-1563">
          <mxGeometry relative="1" as="geometry"/>
        </mxCell>
        <mxCell id="m7U9Kqt3d0JaiDTDVEtB-1548" value="defineReactive" style="rounded=1;whiteSpace=wrap;html=1;fillColor=#fad7ac;strokeColor=none;fontSize=18;arcSize=50;fontColor=#FFFFFF;" vertex="1" parent="1">
          <mxGeometry x="300" y="307" width="150" height="50" as="geometry"/>
        </mxCell>
        <mxCell id="m7U9Kqt3d0JaiDTDVEtB-1610" style="edgeStyle=orthogonalEdgeStyle;curved=1;rounded=1;orthogonalLoop=1;jettySize=auto;html=1;entryX=0.5;entryY=1;entryDx=0;entryDy=0;strokeColor=#000000;fontSize=18;fontColor=#000000;" edge="1" parent="1" source="m7U9Kqt3d0JaiDTDVEtB-1554" target="m7U9Kqt3d0JaiDTDVEtB-1609">
          <mxGeometry relative="1" as="geometry"/>
        </mxCell>
        <mxCell id="m7U9Kqt3d0JaiDTDVEtB-1611" value="run" style="text;html=1;resizable=0;points=[];align=center;verticalAlign=middle;labelBackgroundColor=#ffffff;fontSize=18;fontColor=#000000;" vertex="1" connectable="0" parent="m7U9Kqt3d0JaiDTDVEtB-1610">
          <mxGeometry x="-0.5182" y="9" relative="1" as="geometry">
            <mxPoint as="offset"/>
          </mxGeometry>
        </mxCell>
        <mxCell id="m7U9Kqt3d0JaiDTDVEtB-1554" value="Render Watcher" style="ellipse;whiteSpace=wrap;html=1;fillColor=#b1ddf0;strokeColor=none;fontColor=#FFFFFF;fontSize=18;" vertex="1" parent="1">
          <mxGeometry x="1140" y="182" width="165" height="80" as="geometry"/>
        </mxCell>
        <mxCell id="m7U9Kqt3d0JaiDTDVEtB-1556" value="$attrs" style="rounded=1;whiteSpace=wrap;html=1;fillColor=#cdeb8b;strokeColor=#000000;fontSize=18;dashed=1;" vertex="1" parent="1">
          <mxGeometry x="510" y="157" width="120" height="50" as="geometry"/>
        </mxCell>
        <mxCell id="m7U9Kqt3d0JaiDTDVEtB-1557" value="$listeners" style="rounded=1;whiteSpace=wrap;html=1;fillColor=#cdeb8b;strokeColor=#000000;fontSize=18;dashed=1;" vertex="1" parent="1">
          <mxGeometry x="510" y="217" width="120" height="50" as="geometry"/>
        </mxCell>
        <mxCell id="m7U9Kqt3d0JaiDTDVEtB-1562" value="props" style="rounded=1;whiteSpace=wrap;html=1;fillColor=#cdeb8b;strokeColor=none;fontSize=18;" vertex="1" parent="1">
          <mxGeometry x="510" y="277" width="120" height="50" as="geometry"/>
        </mxCell>
        <mxCell id="m7U9Kqt3d0JaiDTDVEtB-1563" value="data" style="rounded=1;whiteSpace=wrap;html=1;fillColor=#cdeb8b;strokeColor=none;fontSize=18;" vertex="1" parent="1">
          <mxGeometry x="510" y="337" width="120" height="50" as="geometry"/>
        </mxCell>
        <mxCell id="m7U9Kqt3d0JaiDTDVEtB-1602" style="edgeStyle=orthogonalEdgeStyle;curved=1;rounded=1;orthogonalLoop=1;jettySize=auto;html=1;entryX=0;entryY=1;entryDx=0;entryDy=0;strokeColor=#000000;fontSize=18;fontColor=#000000;" edge="1" parent="1" source="m7U9Kqt3d0JaiDTDVEtB-1572" target="m7U9Kqt3d0JaiDTDVEtB-1554">
          <mxGeometry relative="1" as="geometry">
            <Array as="points">
              <mxPoint x="1164" y="290"/>
            </Array>
          </mxGeometry>
        </mxCell>
        <mxCell id="m7U9Kqt3d0JaiDTDVEtB-1603" value="addDep" style="text;html=1;resizable=0;points=[];align=center;verticalAlign=middle;labelBackgroundColor=#ffffff;fontSize=18;fontColor=#000000;" vertex="1" connectable="0" parent="m7U9Kqt3d0JaiDTDVEtB-1602">
          <mxGeometry x="0.2941" y="-8" relative="1" as="geometry">
            <mxPoint x="-46" y="-12" as="offset"/>
          </mxGeometry>
        </mxCell>
        <mxCell id="m7U9Kqt3d0JaiDTDVEtB-1631" style="edgeStyle=orthogonalEdgeStyle;rounded=1;orthogonalLoop=1;jettySize=auto;html=1;entryX=0;entryY=0;entryDx=0;entryDy=0;strokeColor=#FF6666;fontSize=18;fontColor=#000000;curved=1;exitX=0.951;exitY=0.282;exitDx=0;exitDy=0;exitPerimeter=0;" edge="1" parent="1" source="m7U9Kqt3d0JaiDTDVEtB-1572" target="m7U9Kqt3d0JaiDTDVEtB-1554">
          <mxGeometry relative="1" as="geometry">
            <Array as="points">
              <mxPoint x="965" y="194"/>
            </Array>
          </mxGeometry>
        </mxCell>
        <mxCell id="m7U9Kqt3d0JaiDTDVEtB-1632" value="update" style="text;html=1;resizable=0;points=[];align=center;verticalAlign=middle;labelBackgroundColor=#ffffff;fontSize=18;fontColor=#FF6666;" vertex="1" connectable="0" parent="m7U9Kqt3d0JaiDTDVEtB-1631">
          <mxGeometry x="0.336" y="-4" relative="1" as="geometry">
            <mxPoint x="-31" y="-1" as="offset"/>
          </mxGeometry>
        </mxCell>
        <mxCell id="m7U9Kqt3d0JaiDTDVEtB-1637" style="edgeStyle=orthogonalEdgeStyle;curved=1;rounded=1;orthogonalLoop=1;jettySize=auto;html=1;entryX=0;entryY=0.5;entryDx=0;entryDy=0;strokeColor=#000000;fontSize=18;fontColor=#000000;" edge="1" parent="1" target="m7U9Kqt3d0JaiDTDVEtB-1578">
          <mxGeometry relative="1" as="geometry">
            <mxPoint x="930" y="351" as="sourcePoint"/>
            <Array as="points">
              <mxPoint x="938" y="465"/>
            </Array>
          </mxGeometry>
        </mxCell>
        <mxCell id="m7U9Kqt3d0JaiDTDVEtB-1638" value="addDep" style="text;html=1;resizable=0;points=[];align=center;verticalAlign=middle;labelBackgroundColor=#ffffff;fontSize=18;fontColor=#000000;" vertex="1" connectable="0" parent="m7U9Kqt3d0JaiDTDVEtB-1637">
          <mxGeometry x="-0.1462" y="7" relative="1" as="geometry">
            <mxPoint x="-5" y="-19" as="offset"/>
          </mxGeometry>
        </mxCell>
        <mxCell id="m7U9Kqt3d0JaiDTDVEtB-1639" style="edgeStyle=orthogonalEdgeStyle;curved=1;rounded=1;orthogonalLoop=1;jettySize=auto;html=1;strokeColor=#FF6666;fontSize=18;fontColor=#000000;exitX=1;exitY=1;exitDx=0;exitDy=0;" edge="1" parent="1" source="m7U9Kqt3d0JaiDTDVEtB-1572">
          <mxGeometry relative="1" as="geometry">
            <mxPoint x="973" y="337" as="sourcePoint"/>
            <mxPoint x="1080" y="429" as="targetPoint"/>
          </mxGeometry>
        </mxCell>
        <mxCell id="m7U9Kqt3d0JaiDTDVEtB-1642" value="update" style="text;html=1;resizable=0;points=[];align=center;verticalAlign=middle;labelBackgroundColor=#ffffff;fontSize=18;fontColor=#FF6666;" vertex="1" connectable="0" parent="m7U9Kqt3d0JaiDTDVEtB-1639">
          <mxGeometry x="-0.0452" y="-32" relative="1" as="geometry">
            <mxPoint x="-8" y="-7" as="offset"/>
          </mxGeometry>
        </mxCell>
        <mxCell id="m7U9Kqt3d0JaiDTDVEtB-1572" value="Dep" style="ellipse;whiteSpace=wrap;html=1;aspect=fixed;rounded=1;shadow=0;glass=0;comic=0;strokeColor=none;strokeWidth=4;fillColor=#e1d5e7;fontSize=18;fontColor=#FFFFFF;" vertex="1" parent="1">
          <mxGeometry x="810" y="199" width="163" height="163" as="geometry"/>
        </mxCell>
        <mxCell id="m7U9Kqt3d0JaiDTDVEtB-1644" value="" style="edgeStyle=orthogonalEdgeStyle;curved=1;rounded=1;orthogonalLoop=1;jettySize=auto;html=1;strokeColor=#000000;fontSize=18;fontColor=#000000;exitX=0.056;exitY=0.786;exitDx=0;exitDy=0;exitPerimeter=0;" edge="1" parent="1" source="m7U9Kqt3d0JaiDTDVEtB-1578" target="m7U9Kqt3d0JaiDTDVEtB-1645">
          <mxGeometry relative="1" as="geometry">
            <mxPoint x="1220" y="525" as="targetPoint"/>
          </mxGeometry>
        </mxCell>
        <mxCell id="m7U9Kqt3d0JaiDTDVEtB-1646" value="run" style="text;html=1;resizable=0;points=[];align=center;verticalAlign=middle;labelBackgroundColor=#ffffff;fontSize=18;fontColor=#000000;" vertex="1" connectable="0" parent="m7U9Kqt3d0JaiDTDVEtB-1644">
          <mxGeometry x="0.2814" y="-1" relative="1" as="geometry">
            <mxPoint x="21" y="7" as="offset"/>
          </mxGeometry>
        </mxCell>
        <mxCell id="m7U9Kqt3d0JaiDTDVEtB-1578" value="User Watcher" style="ellipse;whiteSpace=wrap;html=1;fillColor=#b1ddf0;strokeColor=none;fontColor=#FFFFFF;fontSize=18;" vertex="1" parent="1">
          <mxGeometry x="994.5" y="430" width="153" height="70" as="geometry"/>
        </mxCell>
        <mxCell id="m7U9Kqt3d0JaiDTDVEtB-1585" style="edgeStyle=orthogonalEdgeStyle;curved=1;rounded=1;orthogonalLoop=1;jettySize=auto;html=1;fontSize=18;fontColor=#000000;" edge="1" parent="1" source="m7U9Kqt3d0JaiDTDVEtB-1579" target="m7U9Kqt3d0JaiDTDVEtB-1572">
          <mxGeometry relative="1" as="geometry"/>
        </mxCell>
        <mxCell id="m7U9Kqt3d0JaiDTDVEtB-1586" value="getter depend" style="text;html=1;resizable=0;points=[];align=center;verticalAlign=middle;labelBackgroundColor=#ffffff;fontSize=18;fontColor=#000000;" vertex="1" connectable="0" parent="m7U9Kqt3d0JaiDTDVEtB-1585">
          <mxGeometry x="-0.12" y="6" relative="1" as="geometry">
            <mxPoint x="-10.5" y="-17" as="offset"/>
          </mxGeometry>
        </mxCell>
        <mxCell id="m7U9Kqt3d0JaiDTDVEtB-1633" style="edgeStyle=orthogonalEdgeStyle;curved=1;rounded=1;orthogonalLoop=1;jettySize=auto;html=1;entryX=0;entryY=1;entryDx=0;entryDy=0;strokeColor=#FF6666;fontSize=18;fontColor=#FF6666;" edge="1" parent="1" source="m7U9Kqt3d0JaiDTDVEtB-1579" target="m7U9Kqt3d0JaiDTDVEtB-1572">
          <mxGeometry relative="1" as="geometry">
            <Array as="points">
              <mxPoint x="740" y="338"/>
            </Array>
          </mxGeometry>
        </mxCell>
        <mxCell id="m7U9Kqt3d0JaiDTDVEtB-1634" value="notify" style="text;html=1;resizable=0;points=[];align=center;verticalAlign=middle;labelBackgroundColor=#ffffff;fontSize=18;fontColor=#FF6666;" vertex="1" connectable="0" parent="m7U9Kqt3d0JaiDTDVEtB-1633">
          <mxGeometry x="-0.1184" y="-26" relative="1" as="geometry">
            <mxPoint x="4" y="17.5" as="offset"/>
          </mxGeometry>
        </mxCell>
        <mxCell id="m7U9Kqt3d0JaiDTDVEtB-1579" value="Computed Watcher" style="ellipse;whiteSpace=wrap;html=1;fillColor=#b1ddf0;strokeColor=none;fontColor=#FFFFFF;fontSize=18;" vertex="1" parent="1">
          <mxGeometry x="635.5" y="413" width="165" height="80" as="geometry"/>
        </mxCell>
        <mxCell id="m7U9Kqt3d0JaiDTDVEtB-1589" style="edgeStyle=orthogonalEdgeStyle;curved=1;rounded=1;orthogonalLoop=1;jettySize=auto;html=1;entryX=0;entryY=0.5;entryDx=0;entryDy=0;fontSize=13;fontColor=#000000;dashed=1;strokeColor=#FF0080;" edge="1" parent="1" source="m7U9Kqt3d0JaiDTDVEtB-1588" target="m7U9Kqt3d0JaiDTDVEtB-1556">
          <mxGeometry relative="1" as="geometry"/>
        </mxCell>
        <mxCell id="m7U9Kqt3d0JaiDTDVEtB-1590" style="edgeStyle=orthogonalEdgeStyle;curved=1;rounded=1;orthogonalLoop=1;jettySize=auto;html=1;entryX=0;entryY=0.5;entryDx=0;entryDy=0;fontSize=13;fontColor=#000000;dashed=1;strokeColor=#FF0080;" edge="1" parent="1" source="m7U9Kqt3d0JaiDTDVEtB-1588" target="m7U9Kqt3d0JaiDTDVEtB-1557">
          <mxGeometry relative="1" as="geometry"/>
        </mxCell>
        <mxCell id="m7U9Kqt3d0JaiDTDVEtB-1588" value="shallow---子属性并未响应式&lt;br style=&quot;font-size: 13px&quot;&gt;并不期望直接修改值" style="shape=note;whiteSpace=wrap;html=1;backgroundOutline=1;darkOpacity=0.05;rounded=1;shadow=0;glass=0;dashed=1;comic=0;strokeColor=#000000;strokeWidth=2;fillColor=#ffffff;fontSize=13;fontColor=#000000;size=16;" vertex="1" parent="1">
          <mxGeometry x="270" y="77" width="180" height="70" as="geometry"/>
        </mxCell>
        <mxCell id="m7U9Kqt3d0JaiDTDVEtB-1595" style="rounded=1;orthogonalLoop=1;jettySize=auto;html=1;entryX=0.5;entryY=1;entryDx=0;entryDy=0;strokeColor=#000000;fontSize=18;fontColor=#000000;" edge="1" parent="1" source="m7U9Kqt3d0JaiDTDVEtB-1594" target="m7U9Kqt3d0JaiDTDVEtB-1579">
          <mxGeometry relative="1" as="geometry"/>
        </mxCell>
        <mxCell id="m7U9Kqt3d0JaiDTDVEtB-1594" value="initWatch" style="rounded=1;whiteSpace=wrap;html=1;fillColor=#EBEBEB;strokeColor=none;gradientColor=none;fontColor=#000000;fontSize=18;shadow=0;glass=0;dashed=1;comic=0;" vertex="1" parent="1">
          <mxGeometry x="658" y="570" width="120" height="50" as="geometry"/>
        </mxCell>
        <mxCell id="m7U9Kqt3d0JaiDTDVEtB-1618" style="edgeStyle=orthogonalEdgeStyle;curved=1;rounded=1;orthogonalLoop=1;jettySize=auto;html=1;entryX=0.5;entryY=1;entryDx=0;entryDy=0;strokeColor=#000000;fontSize=18;fontColor=#000000;" edge="1" parent="1" source="m7U9Kqt3d0JaiDTDVEtB-1596" target="m7U9Kqt3d0JaiDTDVEtB-1578">
          <mxGeometry relative="1" as="geometry"/>
        </mxCell>
        <mxCell id="m7U9Kqt3d0JaiDTDVEtB-1596" value="initComputed" style="rounded=1;whiteSpace=wrap;html=1;fillColor=#EBEBEB;strokeColor=none;gradientColor=none;fontColor=#000000;fontSize=18;shadow=0;glass=0;dashed=1;comic=0;" vertex="1" parent="1">
          <mxGeometry x="1011" y="570" width="120" height="50" as="geometry"/>
        </mxCell>
        <mxCell id="m7U9Kqt3d0JaiDTDVEtB-1609" value="&lt;span style=&quot;white-space: normal&quot;&gt;updateComponent&lt;/span&gt;" style="rounded=1;whiteSpace=wrap;html=1;shadow=0;glass=0;dashed=1;comic=0;strokeColor=#d6b656;strokeWidth=2;fillColor=#fff2cc;fontSize=18;arcSize=50;" vertex="1" parent="1">
          <mxGeometry x="1071" y="52" width="195" height="60" as="geometry"/>
        </mxCell>
        <mxCell id="m7U9Kqt3d0JaiDTDVEtB-1622" style="edgeStyle=orthogonalEdgeStyle;rounded=1;orthogonalLoop=1;jettySize=auto;html=1;entryX=0.5;entryY=1;entryDx=0;entryDy=0;strokeColor=#000000;fontSize=18;fontColor=#000000;exitX=0.5;exitY=0;exitDx=0;exitDy=0;" edge="1" parent="1" source="m7U9Kqt3d0JaiDTDVEtB-1617" target="m7U9Kqt3d0JaiDTDVEtB-1548">
          <mxGeometry relative="1" as="geometry">
            <Array as="points">
              <mxPoint x="460" y="540"/>
              <mxPoint x="375" y="540"/>
            </Array>
          </mxGeometry>
        </mxCell>
        <mxCell id="m7U9Kqt3d0JaiDTDVEtB-1617" value="initProp + initData" style="rounded=1;whiteSpace=wrap;html=1;fillColor=#EBEBEB;strokeColor=none;gradientColor=none;fontColor=#000000;fontSize=18;" vertex="1" parent="1">
          <mxGeometry x="370" y="570" width="180" height="50" as="geometry"/>
        </mxCell>
        <mxCell id="m7U9Kqt3d0JaiDTDVEtB-1645" value="callback" style="rounded=1;whiteSpace=wrap;html=1;shadow=0;glass=0;dashed=1;comic=0;strokeColor=#d6b656;strokeWidth=2;fillColor=#fff2cc;fontSize=18;arcSize=50;" vertex="1" parent="1">
          <mxGeometry x="850" y="550" width="119" height="40" as="geometry"/>
        </mxCell>
      </root>
    </mxGraphModel>
  </diagram>
</mxfile>
